<svg version="1.1" xmlns="http://www.w3.org/2000/svg" width="120px" height="90px" viewBox="0 0 120 90">
  <g transform="translate(35, 8)">
    <!-- Red steam lines -->
    <path d="M15,3 C17,9 11,12 11,17 C11,22 15,24 16,28 C17,31 13,33 12,35" stroke="#EA2D42" stroke-width="3.5" fill="none" stroke-linecap="round"/>
    <path d="M25,0 C27,7 21,10 21,15 C21,20 25,22 26,26 C27,29 23,31 22,33" stroke="#EA2D42" stroke-width="3.5" fill="none" stroke-linecap="round"/>
    <!-- Blue Cup -->
    <path fill="#0074C1" d="M2,35 L38,35 C40,48 36,55 20,55 C4,55 1,48 2,35 Z"/>
    <!-- Handle -->
    <path fill="none" stroke="#0074C1" stroke-width="4" stroke-linecap="round" d="M36,40 C43,40 43,47 36,49"/>
    <!-- Bottom base -->
    <path fill="#537B95" d="M5,58 C15,61 25,61 35,58 L33,61 C23,63 13,63 7,61 Z"/>
  </g>
</svg>
